<?xml version="1.0" encoding="UTF-8" standalone="no"?>
<svg width="32px" height="32px" viewBox="0 0 32 32" version="1.1" xmlns="http://www.w3.org/2000/svg" xmlns:xlink="http://www.w3.org/1999/xlink" xmlns:sketch="http://www.bohemiancoding.com/sketch/ns">
    <!-- Generator: Sketch 3.5 (25232) - http://www.bohemiancoding.com/sketch -->
    <title>icon_close</title>
    <desc>Created with Sketch.</desc>
    <defs></defs>
    <g id="Elements" stroke="none" stroke-width="1" fill="none" fill-rule="evenodd" sketch:type="MSPage">
        <path d="M16,12.304354 L4.44681861,0.751172613 C3.44612829,-0.249517707 1.82372789,-0.250646523 0.82375797,0.7493234 C-0.174177216,1.74725859 -0.175384033,3.37139282 0.825607182,4.37238404 L12.2794969,15.8262738 L0.750522026,27.3552486 C-0.250469189,28.3562398 -0.249262372,29.9803741 0.748672813,30.9783093 C1.74864274,31.9782792 3.37104313,31.9771504 4.37173345,30.9764601 L16,19.3481935 L27.6282665,30.9764601 C28.6289569,31.9771504 30.2513573,31.9782792 31.2513272,30.9783093 C32.2492624,29.9803741 32.2504692,28.3562398 31.249478,27.3552486 L19.7205031,15.8262738 L31.1743928,4.37238404 C32.175384,3.37139282 32.1741772,1.74725859 31.176242,0.7493234 C30.1762721,-0.250646523 28.5538717,-0.249517707 27.5531814,0.751172613 L16,12.304354 L16,12.304354 Z" id="icon_close" fill="#F4F4F4" sketch:type="MSShapeGroup"></path>
    </g>
</svg>